<?xml version="1.0" encoding="UTF-8"?>
<svg width="244px" height="117px" viewBox="0 0 244 117" version="1.1" xmlns="http://www.w3.org/2000/svg" xmlns:xlink="http://www.w3.org/1999/xlink">
    <!-- Generator: Sketch 40 (33762) - http://www.bohemiancoding.com/sketch -->
    <title>102</title>
    <desc>Created with Sketch.</desc>
    <defs></defs>
    <g id="Page-1" stroke="none" stroke-width="1" fill="none" fill-rule="evenodd">
        <g id="102" transform="translate(0.000000, -1.000000)" fill="#0377B0">
            <path d="M240.032,113.991 L187.124,113.991 L187.124,48.727 L164.055,27.807 L187.754,6.307 L240.032,53.73 L240.032,113.991 L240.032,113.991 Z M187.754,0.951 L158.14,27.807 L183.146,50.493 L183.146,117.96 L244,117.96 L244,51.969 L187.754,0.951 L187.754,0.951 Z" id="Fill-27"></path>
            <path d="M174.285,113.991 L121.369,113.991 L121.369,48.729 L98.303,27.807 L122.004,6.307 L174.285,53.73 L174.285,113.991 L174.285,113.991 Z M92.394,27.807 L117.402,50.492 L117.402,117.96 L178.254,117.96 L178.254,51.969 L122.004,0.951 L92.394,27.807 L92.394,27.807 Z" id="Fill-28"></path>
            <path d="M108.533,113.991 L3.973,113.991 L3.973,53.731 L56.258,6.307 L108.533,53.73 L108.533,113.991 L108.533,113.991 Z M0,51.967 L0,117.96 L112.506,117.96 L112.506,51.969 L56.258,0.951 L0,51.967 L0,51.967 Z" id="Fill-29"></path>
            <polygon id="Fill-30" points="44.34 65.247 54.418 65.247 54.418 55.161 44.34 55.161"></polygon>
            <polygon id="Fill-31" points="58.082 65.247 68.166 65.247 68.166 55.161 58.082 55.161"></polygon>
            <polygon id="Fill-32" points="44.34 78.985 54.418 78.985 54.418 68.899 44.34 68.899"></polygon>
            <polygon id="Fill-33" points="58.082 78.985 68.166 78.985 68.166 68.899 58.082 68.899"></polygon>
        </g>
    </g>
</svg>