<?xml version="1.0" encoding="UTF-8"?>
<svg width="430px" height="396px" viewBox="0 0 430 396" version="1.1" xmlns="http://www.w3.org/2000/svg" xmlns:xlink="http://www.w3.org/1999/xlink">
    <!-- Generator: Sketch 40 (33762) - http://www.bohemiancoding.com/sketch -->
    <title>demo2</title>
    <desc>Created with Sketch.</desc>
    <defs></defs>
    <g id="Page-1" stroke="none" stroke-width="1" fill="none" fill-rule="evenodd">
        <g id="demo2" transform="translate(1.000000, 3.000000)">
            <g id="Group">
                <g transform="translate(35.000000, 9.000000)" id="Shape" fill="#F5F5FA">
                    <path d="M157,382 C140.2,385.1 122.7,383 106.2,378.3 C67.9,367.6 32.9,342.5 14.2,307.3 C-4.5,272.1 -5.1,227 16.2,193.3 C33.1,166.5 61.5,149.2 90.1,135.7 C136.5,113.9 187.2,99.2 227.4,67.5 C237.9,59.2 248.7,49.4 262.1,49.1 C270.4,48.9 278.2,52.5 285.3,56.7 C335.2,86.2 360.8,147.3 358.6,205.2 C357.7,229.1 352.4,253.2 340.8,274.2 C329.2,295.2 310.8,312.8 288.4,321.1 C267.3,328.9 243.3,326.7 225.4,341.1 C204,358.3 185.2,376.8 157,382 L157,382 Z"></path>
                    <path d="M69.6,0.2 C76.4,-0.1 82.8,3.5 87.9,8 C102.7,21.1 108.7,41.2 113.1,60.4 C113.7,63 114.3,65.8 113.6,68.4 C112.2,73.5 106.5,75.9 101.5,77.6 C78.3,85.2 44.1,88 31.9,60.9 C21.7,38.4 45,1.5 69.6,0.2 L69.6,0.2 Z"></path>
                </g>
                <g transform="translate(87.000000, 0.000000)">
                    <path d="M257.3,196 L0.7,196 L0.7,180 C0.7,177.2 2.9,175 5.7,175 L252.3,175 C255.1,175 257.3,177.2 257.3,180 L257.3,196 L257.3,196 Z" id="Shape" fill="#5386B8"></path>
                    <circle id="Oval" fill="#F38290" cx="19.6" cy="184.9" r="4.9"></circle>
                    <circle id="Oval" fill="#F9C86D" cx="33.8" cy="184.9" r="4.9"></circle>
                    <circle id="Oval" fill="#61C3AA" cx="48" cy="184.9" r="4.9"></circle>
                    <path d="M257.3,206.9 L0.7,206.9 L0.7,354.5 C0.7,360.7 5.7,365.7 11.9,365.7 L246.1,365.7 C252.3,365.7 257.3,360.7 257.3,354.5 L257.3,206.9 L257.3,206.9 Z" id="Shape" fill="#FFFFFF"></path>
                    <rect id="Rectangle-path" fill="#E2E2E2" x="0.7" y="196" width="256.6" height="11"></rect>
                    <rect id="Rectangle-path" fill="#61C3AA" x="40.3" y="305.9" width="25.2" height="40.1"></rect>
                    <rect id="Rectangle-path" fill="#91D2C1" x="65.5" y="329.2" width="25.2" height="16.8"></rect>
                    <rect id="Rectangle-path" fill="#61C3AA" x="90.7" y="316.7" width="25.2" height="29.3"></rect>
                    <rect id="Rectangle-path" fill="#61C3AA" x="191.1" y="319.7" width="25.2" height="26.3"></rect>
                    <rect id="Rectangle-path" fill="#91D2C1" x="115.9" y="305.9" width="25.2" height="40.1"></rect>
                    <rect id="Rectangle-path" fill="#61C3AA" x="141.1" y="329.2" width="25.2" height="16.8"></rect>
                    <rect id="Rectangle-path" fill="#91D2C1" x="166.3" y="305.9" width="24.8" height="40.1"></rect>
                    <circle id="Oval" fill="#9185BF" cx="187.4" cy="249.6" r="33.7"></circle>
                    <path d="M210.9,273.8 L187.4,249.7 L187.4,216 C187.4,216 144.1,218.9 156.7,262.5 C156.7,262.4 175.3,298.5 210.9,273.8 L210.9,273.8 Z" id="Shape" fill="#B6ACD4"></path>
                    <path d="M188,249.7 L216,234.1 C216,234.1 231,258.4 210.4,272.6 L188,249.7" id="Shape" fill="#CEC9E4"></path>
                    <path d="M83.2,100.8 C66.6,100.8 53.2,87.4 53.2,70.8 C53.2,54.4 66.4,41 82.8,40.8 C82.5,39.5 82.3,38.2 82.3,36.9 C82.3,27.9 89.6,20.7 98.5,20.7 C101.8,20.7 104.8,21.7 107.4,23.3 C112.7,9.8 125.9,0.2 141.3,0.2 C161.4,0.2 177.7,16.5 177.7,36.6 C177.7,38.1 177.6,39.5 177.4,40.9 C192.8,42.1 205,55.1 205,70.8 C205,87.4 191.6,100.8 175,100.8 L83.2,100.8 L83.2,100.8 Z" id="Shape" fill="#FFFFFF"></path>
                    <path d="M54,77.6 C57.1,90.9 69,100.8 83.2,100.8 L174.9,100.8 C186.1,100.8 195.9,94.7 201,85.6 C198.1,73.1 187.3,63.6 174.2,62.5 C174.4,61.1 174.5,59.7 174.5,58.2 C174.5,38.1 158.2,21.8 138.1,21.8 C122.7,21.8 109.6,31.4 104.2,44.9 C101.7,43.2 98.6,42.3 95.3,42.3 C86.3,42.3 79.1,49.6 79.1,58.5 C79.1,59.8 79.3,61.2 79.6,62.4 C68.6,62.5 59.1,68.6 54,77.6 L54,77.6 Z" id="Shape" fill="#EEF9FE"></path>
                </g>
                <g>
                    <path d="M170.2,100.8 C153.6,100.8 140.2,87.4 140.2,70.8 C140.2,54.4 153.4,41 169.8,40.8 C169.5,39.5 169.3,38.2 169.3,36.9 C169.3,27.9 176.6,20.7 185.5,20.7 C188.8,20.7 191.8,21.7 194.4,23.3 C199.7,9.8 212.9,0.2 228.3,0.2 C248.4,0.2 264.7,16.5 264.7,36.6 C264.7,38.1 264.6,39.5 264.4,40.9 C279.8,42.1 292,55.1 292,70.8 C292,87.4 278.6,100.8 262,100.8 L170.2,100.8 L170.2,100.8 Z" id="Shape" stroke="#404F61" stroke-width="5"></path>
                    <g transform="translate(0.000000, 11.000000)" stroke="#E3E6E7" stroke-width="2.5">
                        <path d="M319.1,56.8 C324.7,49.3 333.7,44.5 343.7,44.5 C360.8,44.5 374.6,58.3 374.6,75.4" id="Shape"></path>
                        <path d="M370.5,59 C373.3,57.4 376.6,56.4 380.1,56.4 C387.1,56.4 393.3,60.2 396.6,65.9" id="Shape"></path>
                        <path d="M304.8,2.9 C306.7,0.8 309.7,-0.2 312.7,0.5 C316.2,1.3 318.6,4.3 319,7.7" id="Shape"></path>
                        <path d="M69.2,93 C72.1,82.6 81.6,75 92.9,75 C100.8,75 107.9,78.8 112.4,84.6" id="Shape"></path>
                        <path d="M48.5,82.5 C51.4,80.3 55,78.9 59,78.9 C64.6,78.9 69.5,81.5 72.6,85.6" id="Shape"></path>
                        <path d="M104.8,8.9 C109.1,6.3 114.7,6.6 118.7,10.1 C121.9,12.9 123.3,17 122.7,20.9" id="Shape"></path>
                        <path d="M120.5,12 C120.5,12 126.2,7.2 132.7,12" id="Shape"></path>
                        <rect id="Rectangle-path" x="113" y="205.7" width="104" height="69.3"></rect>
                        <path d="M182.4,205.7 L182.4,275" id="Shape"></path>
                        <path d="M165,205.7 L165,275" id="Shape"></path>
                        <path d="M199.7,205.7 L199.7,275" id="Shape"></path>
                        <path d="M147.7,205.7 L147.7,275" id="Shape"></path>
                        <path d="M130.4,205.7 L130.4,275" id="Shape"></path>
                        <path d="M217,240.4 L113,240.4" id="Shape"></path>
                        <path d="M217,257.7 L113,257.7" id="Shape"></path>
                        <path d="M217,223.1 L113,223.1" id="Shape"></path>
                        <path d="M303.8,118.1 C303.8,111.6 309.1,106.2 315.7,106.2 C320.1,106.2 323.9,108.6 326,112.1" id="Shape"></path>
                        <path d="M344.3,227.4 L363.7,227.4 L363.7,245.6 L381.2,227.4 L416.6,227.4 C422.5,227.4 427.2,222.6 427.2,216.8 L427.2,143 C427.2,137.5 422.7,133 417.2,133 L312.5,133 C306.6,133 301.9,137.8 301.9,143.6 L301.9,162.5" id="Shape"></path>
                        <path d="M386.9,203.2 L406.8,203.2" id="Shape"></path>
                        <path d="M365.3,188.4 L406.8,188.4" id="Shape"></path>
                        <path d="M344.3,171.6 L361.4,171.6" id="Shape"></path>
                        <path d="M322.3,156.8 L376.7,156.8" id="Shape"></path>
                        <path d="M10.7,217.3 L87.7,217.3 L87.7,311.8 L64.2,311.8 L64.2,331 L43.7,311.8 L11.3,311.8 C5.4,311.8 0.7,307 0.7,301.2 L0.7,227.4 C0.7,221.8 5.2,217.3 10.7,217.3 L10.7,217.3 Z" id="Shape"></path>
                        <path d="M51.1,287.5 L21.2,287.5" id="Shape"></path>
                        <path d="M72.7,272.7 L21.2,272.7" id="Shape"></path>
                        <path d="M85.7,256 L67.5,256" id="Shape"></path>
                        <path d="M85.7,241.2 L51.3,241.2" id="Shape"></path>
                    </g>
                    <path d="M334.3,365.7 L97.7,365.7 C92.2,365.7 87.7,361.2 87.7,355.7 L87.7,183.5 C87.7,178 92.2,173.5 97.7,173.5 L334.3,173.5 C339.8,173.5 344.3,178 344.3,183.5 L344.3,355.7 C344.3,361.3 339.9,365.7 334.3,365.7 L334.3,365.7 Z" id="Shape" stroke="#404F61" stroke-width="5"></path>
                    <path d="M87.7,196 L344.3,196" id="Shape" stroke="#404F61" stroke-width="5"></path>
                    <circle id="Oval" stroke="#404F61" stroke-width="5" cx="274.4" cy="249.6" r="33.7"></circle>
                    <polyline id="Shape" stroke="#404F61" stroke-width="2.5" points="274.4 215.9 274.4 249.6 297.9 273.8"></polyline>
                    <path d="M274.4,249.6 L303.8,233.2" id="Shape" stroke="#404F61" stroke-width="2.5"></path>
                    <path d="M321.7,345.9 L109,345.9" id="Shape" stroke="#404F61" stroke-width="5"></path>
                    <rect id="Rectangle-path" stroke="#404F61" stroke-width="5" x="127.3" y="305.9" width="25.2" height="40.1"></rect>
                    <rect id="Rectangle-path" stroke="#404F61" stroke-width="5" x="152.5" y="329.2" width="25.2" height="16.8"></rect>
                    <rect id="Rectangle-path" stroke="#404F61" stroke-width="5" x="177.7" y="316.7" width="25.2" height="29.3"></rect>
                    <rect id="Rectangle-path" stroke="#404F61" stroke-width="5" x="278.1" y="319.7" width="25.2" height="26.3"></rect>
                    <rect id="Rectangle-path" stroke="#404F61" stroke-width="5" x="202.9" y="305.9" width="25.2" height="40.1"></rect>
                    <rect id="Rectangle-path" stroke="#404F61" stroke-width="5" x="228.1" y="329.2" width="25.2" height="16.8"></rect>
                    <rect id="Rectangle-path" stroke="#404F61" stroke-width="5" x="253.3" y="305.9" width="24.8" height="40.1"></rect>
                    <polyline id="Shape" stroke="#404F61" stroke-width="2.5" points="130.4 268.7 165 251.4 182.4 268.7 199.7 234.1"></polyline>
                    <path d="M176.2,103.6 L176.2,155.9" id="Shape" stroke="#404F61" stroke-width="2.5" stroke-dasharray="7,7"></path>
                    <path d="M255.9,102.6 L255.9,155.9" id="Shape" stroke="#404F61" stroke-width="2.5" stroke-dasharray="7,7"></path>
                    <polyline id="Shape" stroke="#404F61" stroke-width="2.5" points="183.4 153.9 176.2 161.2 168.9 153.9"></polyline>
                    <polyline id="Shape" stroke="#404F61" stroke-width="2.5" points="263.2 153.9 255.9 161.2 248.6 153.9"></polyline>
                    <circle id="Oval" stroke="#404F61" stroke-width="5" cx="130.4" cy="268.7" r="0.9"></circle>
                    <circle id="Oval" stroke="#404F61" stroke-width="5" cx="165.1" cy="251.4" r="0.9"></circle>
                    <circle id="Oval" stroke="#404F61" stroke-width="5" cx="182.4" cy="268.7" r="0.9"></circle>
                    <circle id="Oval" stroke="#404F61" stroke-width="5" cx="199.7" cy="234.1" r="0.9"></circle>
                </g>
            </g>
        </g>
    </g>
</svg>