<?xml version="1.0" encoding="UTF-8"?>
<svg width="438px" height="379px" viewBox="0 0 438 379" version="1.1" xmlns="http://www.w3.org/2000/svg" xmlns:xlink="http://www.w3.org/1999/xlink">
    <!-- Generator: Sketch 40 (33762) - http://www.bohemiancoding.com/sketch -->
    <title>demo3</title>
    <desc>Created with Sketch.</desc>
    <defs></defs>
    <g id="Page-1" stroke="none" stroke-width="1" fill="none" fill-rule="evenodd">
        <g id="demo3" transform="translate(3.000000, 2.000000)">
            <g id="Group">
                <g transform="translate(0.000000, 23.000000)" id="Shape" fill="#FEF3F3">
                    <path d="M51.5,150 C29.4,168.2 4.1,188.2 1.2,216.7 C-1.2,240.8 14.5,264.1 35.4,276.3 C56.3,288.5 81.4,291.4 105.6,290.9 C129.8,290.4 153.9,286.9 178.1,287.4 C193.2,287.7 208.6,289.8 221.9,297 C232.7,302.9 241.3,311.9 250.6,319.9 C274.8,340.8 305.9,356 337.7,353 C376.3,349.3 410,316 414.1,277.5 C415.5,264.1 413.6,250.2 407,238.5 C399.1,224.5 385.5,215 373.2,204.7 C357.6,191.5 343.5,176 334.4,157.8 C314.4,118 317.5,66 285.5,35 C274.4,24.2 260.1,17.3 245.7,11.7 C230.7,5.9 215.1,1.2 199,1 C162.2,0.5 136.8,13.2 125.6,47.3 C111.7,90 86,121.6 51.5,150 L51.5,150 Z"></path>
                    <path d="M96.6,41.1 C94.2,36.6 89.7,33.4 85.2,31.1 C80,28.4 74.3,26.4 68.5,26.9 C60,27.8 52.9,34.3 49.1,42 C45.4,49.7 44.5,58.4 44,67 C43.1,83.9 57.7,99.6 75.5,91.5 C89.8,85.1 104.3,55.6 96.6,41.1 L96.6,41.1 Z"></path>
                    <path d="M384.2,95.7 C383.6,101.1 379.2,129 399.4,130.8 C428.1,133.4 427.4,114.9 427.4,108.2 C427.4,94.8 418.6,80.7 406.7,74.2 C393.2,66.7 385.3,85 384.2,95.7 L384.2,95.7 Z"></path>
                </g>
                <g transform="translate(62.000000, 53.000000)">
                    <rect id="Rectangle-path" fill="#D4E1E8" x="10.4" y="35.3" width="179.9" height="232.4"></rect>
                    <rect id="Rectangle-path" fill="#96A6AF" x="10.4" y="35.3" width="29.4" height="232.4"></rect>
                    <polygon id="Shape" fill="#FCE37E" points="294.4 284.9 113.3 284.9 113.3 151.4 190.3 151.4 197.4 169 294.4 169"></polygon>
                    <polygon id="Shape" fill="#FFFEF6" points="288.8 169 197.4 169 190.3 151.4 124 150.6 124 143.4 136.1 143.4 137.7 134 288.8 134"></polygon>
                    <polygon id="Shape" fill="#ECEBE4" points="289.4 169 197.4 169 194 160.8 289.4 160.8"></polygon>
                    <rect id="Rectangle-path" fill="#FFFFFF" x="124" y="161.7" width="54.7" height="8.7"></rect>
                    <path d="M104.4,267.9 L104.4,153.2 C104.4,148.1 108.5,144 113.6,144 L115.9,144 L115.9,143.2 C115.9,138.1 120,134 125.1,134 L127.9,134 L127.9,134 C127.9,128.9 132,124.8 137.1,124.8 L190,124.8 L190.3,133.1 L136,133.1 L136,143.6 L124,143.6 L124,151.2 L113.3,151.2 L111.9,268.1 L104.4,268.1 L104.4,267.9 Z" id="Shape" fill="#C1D4DC"></path>
                    <g transform="translate(10.000000, 64.000000)" id="Shape" fill="#88989F">
                        <path d="M9.6,188.2 L0.9,188.2 L0.9,175.7 L9.6,175.7 C13.1,175.7 15.8,178.5 15.8,181.9 L15.8,181.9 C15.9,185.4 13.1,188.2 9.6,188.2 L9.6,188.2 Z"></path>
                        <path d="M9.6,153.2 L0.9,153.2 L0.9,140.7 L9.6,140.7 C13.1,140.7 15.8,143.5 15.8,146.9 L15.8,146.9 C15.9,150.4 13.1,153.2 9.6,153.2 L9.6,153.2 Z"></path>
                        <path d="M9.6,118.2 L0.9,118.2 L0.9,105.7 L9.6,105.7 C13.1,105.7 15.8,108.5 15.8,111.9 L15.8,111.9 C15.9,115.4 13.1,118.2 9.6,118.2 L9.6,118.2 Z"></path>
                        <path d="M9.6,83.2 L0.9,83.2 L0.9,70.7 L9.6,70.7 C13.1,70.7 15.8,73.5 15.8,76.9 L15.8,76.9 C15.9,80.4 13.1,83.2 9.6,83.2 L9.6,83.2 Z"></path>
                        <path d="M9.6,48.2 L0.9,48.2 L0.9,35.7 L9.6,35.7 C13.1,35.7 15.8,38.5 15.8,41.9 L15.8,41.9 C15.9,45.4 13.1,48.2 9.6,48.2 L9.6,48.2 Z"></path>
                        <path d="M9.6,13.2 L0.9,13.2 L0.9,0.7 L9.6,0.7 C13.1,0.7 15.8,3.5 15.8,6.9 L15.8,6.9 C15.9,10.5 13.1,13.2 9.6,13.2 L9.6,13.2 Z"></path>
                    </g>
                    <g transform="translate(0.000000, 57.000000)" id="Shape" fill="#F2F4F6">
                        <path d="M17.6,188.2 L0.9,188.2 L0.9,175.7 L17.6,175.7 C21.1,175.7 23.8,178.5 23.8,181.9 L23.8,181.9 C23.9,185.4 21.1,188.2 17.6,188.2 L17.6,188.2 Z"></path>
                        <path d="M17.6,153.2 L0.9,153.2 L0.9,140.7 L17.6,140.7 C21.1,140.7 23.8,143.5 23.8,146.9 L23.8,146.9 C23.9,150.4 21.1,153.2 17.6,153.2 L17.6,153.2 Z"></path>
                        <path d="M17.6,118.2 L0.9,118.2 L0.9,105.7 L17.6,105.7 C21.1,105.7 23.8,108.5 23.8,111.9 L23.8,111.9 C23.9,115.4 21.1,118.2 17.6,118.2 L17.6,118.2 Z"></path>
                        <path d="M17.6,83.2 L0.9,83.2 L0.9,70.7 L17.6,70.7 C21.1,70.7 23.8,73.5 23.8,76.9 L23.8,76.9 C23.9,80.4 21.1,83.2 17.6,83.2 L17.6,83.2 Z"></path>
                        <path d="M17.6,48.2 L0.9,48.2 L0.9,35.7 L17.6,35.7 C21.1,35.7 23.8,38.5 23.8,41.9 L23.8,41.9 C23.9,45.4 21.1,48.2 17.6,48.2 L17.6,48.2 Z"></path>
                        <path d="M17.6,13.2 L0.9,13.2 L0.9,0.7 L17.6,0.7 C21.1,0.7 23.8,3.5 23.8,6.9 L23.8,6.9 C23.9,10.5 21.1,13.2 17.6,13.2 L17.6,13.2 Z"></path>
                    </g>
                    <rect id="Rectangle-path" fill="#FFFFFF" x="68.3" y="70.8" width="66.8" height="30.3"></rect>
                    <path d="M302.3,108 L241.7,108 L241.7,9.8 C241.7,4.6 245.9,0.4 251.1,0.4 L311.7,0.4 L311.7,98.6 C311.6,103.8 307.4,108 302.3,108 L302.3,108 Z" id="Shape" fill="#FFFEF6"></path>
                    <path d="M321.8,1.3 L321.8,1.3 C316.2,1.3 311.6,5.9 311.6,11.5 L311.6,22.7 L332,22.7 L332,11.5 C332,5.9 327.5,1.3 321.8,1.3 L321.8,1.3 Z" id="Shape" fill="#E5E5E3"></path>
                    <path d="M325.9,2.2 C324.6,1.6 323.3,1.3 321.8,1.3 C316.2,1.3 311.6,5.9 311.6,11.5 L311.6,22.7 L319.8,22.7 L319.8,11.5 C319.8,7.3 322.3,3.8 325.9,2.2 L325.9,2.2 Z" id="Shape" fill="#D2D2D2"></path>
                    <path d="M291.3,109.4 L231.8,109.4 C225.8,109.4 220.9,104.5 220.9,98.5 L220.9,88 L291.3,88 L292.4,102.4 L296.8,108.1 L291.3,109.4 L291.3,109.4 Z" id="Shape" fill="#FFFFFF"></path>
                    <path d="M289.8,85.7 L296.7,85.7 C299.1,85.7 301.1,87.7 301.1,90.1 L301.1,108.1 L290.4,102.2 L289.8,85.7 L289.8,85.7 Z" id="Shape" fill="#E5E5E3"></path>
                </g>
                <g>
                    <g id="Shape" stroke-width="2.5" stroke="#E3E6E7">
                        <polyline points="72.4 134.2 0.5 134.2 0.5 39.4"></polyline>
                        <polyline points="22.6 17.3 88.6 17.3 88.6 87.6"></polyline>
                        <path d="M71.1,73.2 L18,73.2 C15.5,73.2 13.4,71.2 13.4,68.6 L13.4,68.6 C13.4,66.1 15.4,64 18,64 L71.1,64 C73.6,64 75.7,66 75.7,68.6 L75.7,68.6 C75.7,71.2 73.6,73.2 71.1,73.2 L71.1,73.2 Z"></path>
                        <path d="M13.5,85.5 L75.7,85.5"></path>
                        <path d="M13.5,93.7 L44.6,93.7"></path>
                        <path d="M13.5,101.9 L44.6,101.9"></path>
                        <path d="M13.5,110.1 L44.6,110.1"></path>
                        <path d="M75.7,34.9 L66.2,34.9"></path>
                        <path d="M75.7,40.4 L50.4,40.4"></path>
                        <polygon points="0.5 39.4 22.6 39.4 22.6 17.3"></polygon>
                        <path d="M323.3,187 L323.3,162.4"></path>
                        <polyline points="373.6 146.7 433.5 146.7 433.5 292.9 356.4 292.9"></polyline>
                        <path d="M411.6,216.7 L351.4,216.7 L351.4,205.3 L411.6,205.3 C414.8,205.3 417.3,207.9 417.3,211 L417.3,211 C417.3,214.1 414.7,216.7 411.6,216.7 L411.6,216.7 Z"></path>
                        <path d="M356.4,232 L417.3,232"></path>
                        <path d="M379.3,242.3 L418.2,242.3"></path>
                        <path d="M379.3,252.6 L418.2,252.6"></path>
                        <path d="M379.3,262.8 L418.2,262.8"></path>
                        <path d="M417.3,168.7 L405.4,168.7"></path>
                        <path d="M417.3,175.6 L385.6,175.6"></path>
                        <g transform="translate(172.000000, 0.000000)">
                            <polyline points="80.9 23.3 80.9 56.8 13.1 56.8 13.1 13 71.4 13"></polyline>
                            <path d="M80.9,27.6 L13.1,27.6"></path>
                            <path d="M80.9,42.2 L13.1,42.2"></path>
                            <path d="M58.3,13 L58.3,56.8"></path>
                            <path d="M35.7,13 L35.7,56.8"></path>
                            <polygon points="0.2 0.1 0.2 69.7 93.9 69.7 93.9 22.5 71.4 0.1"></polygon>
                            <polyline points="71.4 0.1 71.4 22.5 93.9 22.5"></polyline>
                        </g>
                    </g>
                    <g transform="translate(62.000000, 53.000000)" stroke="#404F61">
                        <g transform="translate(113.000000, 134.000000)">
                            <polygon id="Shape" stroke-width="5" points="0.3 150.9 181.4 150.9 181.4 35 84.4 35 77.4 17.4 0.3 17.4"></polygon>
                            <polyline id="Shape" stroke-width="5" points="163.7 32.8 163.7 9.4 11 9.4 11 16.6"></polyline>
                            <polyline id="Shape" stroke-width="5" points="175.8 35 175.8 0 23.1 0 23.1 8"></polyline>
                            <rect id="Rectangle-path" stroke-width="2.5" x="11" y="27.7" width="54.7" height="8.7"></rect>
                            <path d="M166.4,135.6 L144.4,135.6" id="Shape" stroke-width="2.5"></path>
                            <path d="M166.4,130.4 L130.1,130.4" id="Shape" stroke-width="2.5"></path>
                            <path d="M166.4,125.3 L160.1,125.3" id="Shape" stroke-width="2.5"></path>
                            <path d="M156,125.3 L149.7,125.3" id="Shape" stroke-width="2.5"></path>
                            <path d="M145.6,125.3 L139.4,125.3" id="Shape" stroke-width="2.5"></path>
                        </g>
                        <g transform="translate(0.000000, 35.000000)">
                            <polyline id="Shape" stroke-width="5" points="111.9 232.7 10.4 232.7 10.4 210.2"></polyline>
                            <polyline id="Shape" stroke-width="5" points="10.4 22.7 10.4 0.3 190.3 0.3 190.3 99"></polyline>
                            <path d="M10.4,197.7 L10.4,175.2" id="Shape" stroke-width="5"></path>
                            <path d="M10.4,162.7 L10.4,140.2" id="Shape" stroke-width="5"></path>
                            <path d="M10.4,127.7 L10.4,105.2" id="Shape" stroke-width="5"></path>
                            <path d="M10.4,92.7 L10.4,70.2" id="Shape" stroke-width="5"></path>
                            <path d="M10.4,57.2 L10.4,35.7" id="Shape" stroke-width="5"></path>
                            <path d="M17.6,210.2 L0.9,210.2 L0.9,197.7 L17.6,197.7 C21.1,197.7 23.8,200.5 23.8,203.9 L23.8,203.9 C23.9,207.4 21.1,210.2 17.6,210.2 L17.6,210.2 Z" id="Shape" stroke-width="5"></path>
                            <path d="M17.6,175.2 L0.9,175.2 L0.9,162.7 L17.6,162.7 C21.1,162.7 23.8,165.5 23.8,168.9 L23.8,168.9 C23.9,172.4 21.1,175.2 17.6,175.2 L17.6,175.2 Z" id="Shape" stroke-width="5"></path>
                            <path d="M17.6,140.2 L0.9,140.2 L0.9,127.7 L17.6,127.7 C21.1,127.7 23.8,130.5 23.8,133.9 L23.8,133.9 C23.9,137.4 21.1,140.2 17.6,140.2 L17.6,140.2 Z" id="Shape" stroke-width="5"></path>
                            <path d="M17.6,105.2 L0.9,105.2 L0.9,92.7 L17.6,92.7 C21.1,92.7 23.8,95.5 23.8,98.9 L23.8,98.9 C23.9,102.4 21.1,105.2 17.6,105.2 L17.6,105.2 Z" id="Shape" stroke-width="5"></path>
                            <path d="M17.6,70.2 L0.9,70.2 L0.9,57.7 L17.6,57.7 C21.1,57.7 23.8,60.5 23.8,63.9 L23.8,63.9 C23.9,67.4 21.1,70.2 17.6,70.2 L17.6,70.2 Z" id="Shape" stroke-width="5"></path>
                            <path d="M17.6,35.2 L0.9,35.2 L0.9,22.7 L17.6,22.7 C21.1,22.7 23.8,25.5 23.8,28.9 L23.8,28.9 C23.9,32.5 21.1,35.2 17.6,35.2 L17.6,35.2 Z" id="Shape" stroke-width="5"></path>
                            <rect id="Rectangle-path" stroke-width="5" x="68.3" y="35.8" width="66.8" height="30.3"></rect>
                            <path d="M39.8,0.3 L39.8,232.7" id="Shape" stroke-width="2.5"></path>
                            <path d="M82.1,46.9 L121.3,46.9" id="Shape" stroke-width="2.5"></path>
                            <path d="M90.1,54.9 L113.3,54.9" id="Shape" stroke-width="2.5"></path>
                        </g>
                        <g transform="translate(220.000000, 0.000000)" id="Shape">
                            <path d="M91.6,10.7 L91.6,97.8 C91.6,103.4 87,108 81.4,108 C75.8,108 71.2,103.4 71.2,97.8 L71.2,88 L0.9,88 L0.9,97.9 C0.9,103.5 5.5,108.1 11.1,108.1 L81.4,108.1" stroke-width="5"></path>
                            <path d="M21.3,88 L21.3,10.6 C21.3,5.1 25.8,0.6 31.3,0.6 L101.8,0.6" stroke-width="5"></path>
                            <path d="M91.6,10.7 C91.6,5.1 96.2,0.5 101.8,0.5 C107.4,0.5 112,5.1 112,10.7 L112,22.7 L91.6,22.7" stroke-width="5"></path>
                            <g transform="translate(69.000000, 50.000000)" stroke-width="2.5">
                                <path d="M0.4,16 C0.4,18.3 2.6,20.2 5.2,20.2 C7.8,20.2 10,18.3 10,16 C10,11.8 0.3,11.8 0.3,7.7 C0.3,5.4 2.5,3.5 5.1,3.5 C7.7,3.5 9.9,5.4 9.9,7.7"></path>
                                <path d="M5.2,3.5 L5.2,0.2"></path>
                                <path d="M5.2,23.4 L5.2,20.1"></path>
                            </g>
                            <g transform="translate(51.000000, 50.000000)" stroke-width="2.5">
                                <path d="M0.4,16 C0.4,18.3 2.6,20.2 5.2,20.2 C7.8,20.2 10,18.3 10,16 C10,11.8 0.3,11.8 0.3,7.7 C0.3,5.4 2.5,3.5 5.1,3.5 C7.7,3.5 9.9,5.4 9.9,7.7"></path>
                                <path d="M5.2,3.5 L5.2,0.2"></path>
                                <path d="M5.2,23.4 L5.2,20.1"></path>
                            </g>
                            <g transform="translate(33.000000, 50.000000)" stroke-width="2.5">
                                <path d="M0.4,16 C0.4,18.3 2.6,20.2 5.2,20.2 C7.8,20.2 10,18.3 10,16 C10,11.8 0.3,11.8 0.3,7.7 C0.3,5.4 2.5,3.5 5.1,3.5 C7.7,3.5 9.9,5.4 9.9,7.7"></path>
                                <path d="M5.2,3.5 L5.2,0.2"></path>
                                <path d="M5.2,23.4 L5.2,20.1"></path>
                            </g>
                            <path d="M33.4,37.2 L50,37.2" stroke-width="2.5"></path>
                            <path d="M33.4,29.5 L64,29.5" stroke-width="2.5"></path>
                            <path d="M33.4,21.7 L64,21.7" stroke-width="2.5"></path>
                        </g>
                    </g>
                </g>
            </g>
        </g>
    </g>
</svg>