<?xml version="1.0" encoding="UTF-8"?>
<svg width="47px" height="60px" viewBox="0 0 47 60" version="1.1" xmlns="http://www.w3.org/2000/svg" xmlns:xlink="http://www.w3.org/1999/xlink">
    <!-- Generator: Sketch 40 (33762) - http://www.bohemiancoding.com/sketch -->
    <title>Shape</title>
    <desc>Created with Sketch.</desc>
    <defs></defs>
    <g id="Page-1" stroke="none" stroke-width="1" fill="none" fill-rule="evenodd">
        <g id="logo" fill="#1BB933">
            <g id="Consumers">
                <g id="Desktop-HD">
                    <g id="Group">
                        <g id="Group-2">
                            <g id="Group-3">
                                <path d="M46.9645541,25.4384394 C46.3764445,21.3531868 43.0238003,18.3681823 39.7635224,15.9871743 C41.9273521,13.9596948 44.1567428,12.0021715 46.1400381,9.79980156 C47.8349304,7.91848045 45.0028971,5.15646122 43.2970241,7.0505868 C41.2129654,9.36413705 38.7642852,11.4522036 37.0732682,14.0646291 C34.9003956,12.5252812 32.7927609,11.0280944 30.7823368,9.36163861 C30.7129007,9.1861236 30.606001,9.03153297 30.4845681,8.8881853 C31.4469879,8.27138431 32.3302826,7.49718194 33.0688915,6.87725792 C33.9990153,6.09618485 34.8890921,5.27076458 35.7937022,4.46283336 C36.5439374,3.79294065 37.3897687,3.28482155 37.7143433,2.30293681 C38.0899453,1.16583687 37.084895,0.0028156517 35.9002788,4.91300838e-06 C33.8304304,-0.0043673472 31.662725,2.910681 30.2439631,4.1455322 C29.3419368,4.93097752 28.4079375,5.61367472 27.4080543,6.26576609 C27.3340965,6.18987614 27.2575551,6.11960768 27.1839202,6.04246851 C25.0988926,3.86133528 22.1996836,1.02373841 18.8560823,1.64116401 C15.391048,2.28107551 16.4936323,5.81729712 18.0448076,7.84165358 C14.3940715,9.71797783 10.4368467,12.5109152 9.95337603,16.7707458 C9.63881331,19.5430711 10.6067234,21.9209561 12.1514395,24.0202656 C9.75410991,25.4212627 7.57671583,27.3157006 5.89635668,29.2504257 C4.6500553,30.6857762 3.83361326,32.7816504 4.07841669,34.6454825 C-1.39510378,40.5074342 -2.08752931,51.9165348 6.53646274,54.6894847 C15.1239603,57.4505671 34.0510117,43.0954999 35.2840717,57.690729 C35.4717113,59.9133988 38.8514842,59.9742982 38.902835,57.690729 C39.1508678,46.6795041 29.4042681,46.6248508 20.8852378,48.8918677 C17.1037031,49.8977998 10.6432179,53.0155337 6.76705594,51.2322761 C1.21570218,48.6782517 2.75589684,42.3334774 5.86083112,37.5823921 C6.0009956,37.6801434 6.1411601,37.7782068 6.29973329,37.8659645 C9.26385713,39.5058742 13.0153567,36.2725879 15.0438663,34.5455451 C15.8677365,33.8437974 17.753175,32.3997022 19.1170337,30.8800295 C21.4349152,32.8088208 24.0621921,34.474652 26.9019765,34.4649706 C31.607176,34.4484184 35.8760568,29.4615434 38.7668688,26.106146 C41.0340457,27.4618589 43.1565367,27.8741005 45.8393626,27.3544262 C46.7798212,27.1720406 47.0782359,26.2288815 46.9645541,25.4384394 L46.9645541,25.4384394 L46.9645541,25.4384394 L46.9645541,25.4384394 Z M13.2704948,18.1255219 C13.1700543,16.7707458 13.7194087,15.4765568 14.5926917,14.288239 C13.8954218,15.496232 13.4403716,16.787298 13.2704948,18.1255219 L13.2704948,18.1255219 L13.2704948,18.1255219 L13.2704948,18.1255219 Z" id="Shape"></path>
                            </g>
                        </g>
                    </g>
                </g>
            </g>
        </g>
    </g>
</svg>