<?xml version="1.0" encoding="UTF-8"?>
<svg width="359px" height="60px" viewBox="0 0 359 60" version="1.1" xmlns="http://www.w3.org/2000/svg" xmlns:xlink="http://www.w3.org/1999/xlink">
    <!-- Generator: Sketch 40 (33762) - http://www.bohemiancoding.com/sketch -->
    <title>logo</title>
    <desc>Created with Sketch.</desc>
    <defs></defs>
    <g id="Page-1" stroke="none" stroke-width="1" fill="none" fill-rule="evenodd">
        <g id="logo">
            <g id="Consumers">
                <g id="Desktop-HD">
                    <g id="Group">
                        <rect id="Rectangle" x="0" y="0" width="359" height="60"></rect>
                        <g id="Group-2">
                            <g id="Group-3">
                                <path d="M46.9645541,25.4384394 C46.3764445,21.3531868 43.0238003,18.3681823 39.7635224,15.9871743 C41.9273521,13.9596948 44.1567428,12.0021715 46.1400381,9.79980156 C47.8349304,7.91848045 45.0028971,5.15646122 43.2970241,7.0505868 C41.2129654,9.36413705 38.7642852,11.4522036 37.0732682,14.0646291 C34.9003956,12.5252812 32.7927609,11.0280944 30.7823368,9.36163861 C30.7129007,9.1861236 30.606001,9.03153297 30.4845681,8.8881853 C31.4469879,8.27138431 32.3302826,7.49718194 33.0688915,6.87725792 C33.9990153,6.09618485 34.8890921,5.27076458 35.7937022,4.46283336 C36.5439374,3.79294065 37.3897687,3.28482155 37.7143433,2.30293681 C38.0899453,1.16583687 37.084895,0.0028156517 35.9002788,4.91300838e-06 C33.8304304,-0.0043673472 31.662725,2.910681 30.2439631,4.1455322 C29.3419368,4.93097752 28.4079375,5.61367472 27.4080543,6.26576609 C27.3340965,6.18987614 27.2575551,6.11960768 27.1839202,6.04246851 C25.0988926,3.86133528 22.1996836,1.02373841 18.8560823,1.64116401 C15.391048,2.28107551 16.4936323,5.81729712 18.0448076,7.84165358 C14.3940715,9.71797783 10.4368467,12.5109152 9.95337603,16.7707458 C9.63881331,19.5430711 10.6067234,21.9209561 12.1514395,24.0202656 C9.75410991,25.4212627 7.57671583,27.3157006 5.89635668,29.2504257 C4.6500553,30.6857762 3.83361326,32.7816504 4.07841669,34.6454825 C-1.39510378,40.5074342 -2.08752931,51.9165348 6.53646274,54.6894847 C15.1239603,57.4505671 34.0510117,43.0954999 35.2840717,57.690729 C35.4717113,59.9133988 38.8514842,59.9742982 38.902835,57.690729 C39.1508678,46.6795041 29.4042681,46.6248508 20.8852378,48.8918677 C17.1037031,49.8977998 10.6432179,53.0155337 6.76705594,51.2322761 C1.21570218,48.6782517 2.75589684,42.3334774 5.86083112,37.5823921 C6.0009956,37.6801434 6.1411601,37.7782068 6.29973329,37.8659645 C9.26385713,39.5058742 13.0153567,36.2725879 15.0438663,34.5455451 C15.8677365,33.8437974 17.753175,32.3997022 19.1170337,30.8800295 C21.4349152,32.8088208 24.0621921,34.474652 26.9019765,34.4649706 C31.607176,34.4484184 35.8760568,29.4615434 38.7668688,26.106146 C41.0340457,27.4618589 43.1565367,27.8741005 45.8393626,27.3544262 C46.7798212,27.1720406 47.0782359,26.2288815 46.9645541,25.4384394 L46.9645541,25.4384394 L46.9645541,25.4384394 L46.9645541,25.4384394 Z M13.2704948,18.1255219 C13.1700543,16.7707458 13.7194087,15.4765568 14.5926917,14.288239 C13.8954218,15.496232 13.4403716,16.787298 13.2704948,18.1255219 L13.2704948,18.1255219 L13.2704948,18.1255219 L13.2704948,18.1255219 Z" id="Shape" fill="#1BB933"></path>
                                <path d="M82.1523438,39.8828125 L66,39.8828125 L66,11.328125 L82.1523438,11.328125 L82.1523438,15.2734375 L70.6679688,15.2734375 L70.6679688,23.046875 L81.4296875,23.046875 L81.4296875,26.953125 L70.6679688,26.953125 L70.6679688,35.9179688 L82.1523438,35.9179688 L82.1523438,39.8828125 L82.1523438,39.8828125 Z M106.839844,39.8828125 L102.230469,39.8828125 L102.230469,26.6015625 C102.230469,24.9348875 101.895186,23.6914104 101.224609,22.8710938 C100.554033,22.0507771 99.4895906,21.640625 98.03125,21.640625 C96.0911361,21.640625 94.6718795,22.2135359 93.7734375,23.359375 C92.8749955,24.5052141 92.4257812,26.4257678 92.4257812,29.1210938 L92.4257812,39.8828125 L87.8359375,39.8828125 L87.8359375,18.28125 L91.4296875,18.28125 L92.0742188,21.1132812 L92.3085938,21.1132812 C92.9596387,20.0846303 93.8841086,19.2903674 95.0820312,18.7304688 C96.2799539,18.1705701 97.6080656,17.890625 99.0664062,17.890625 C104.248724,17.890625 106.839844,20.5273174 106.839844,25.8007812 L106.839844,39.8828125 L106.839844,39.8828125 Z M122.660156,40.2734375 C119.300764,40.2734375 116.673838,39.2936296 114.779297,37.3339844 C112.884756,35.3743392 111.9375,32.6757984 111.9375,29.2382812 C111.9375,25.7096178 112.816397,22.936208 114.574219,20.9179688 C116.33204,18.8997295 118.74738,17.890625 121.820312,17.890625 C124.671889,17.890625 126.924471,18.7565018 128.578125,20.4882812 C130.231779,22.2200607 131.058594,24.6028494 131.058594,27.6367188 L131.058594,30.1171875 L116.664062,30.1171875 C116.729167,32.2135521 117.295568,33.8248642 118.363281,34.9511719 C119.430995,36.0774796 120.934886,36.640625 122.875,36.640625 C124.151048,36.640625 125.339187,36.5201835 126.439453,36.2792969 C127.539719,36.0384103 128.721348,35.6380236 129.984375,35.078125 L129.984375,38.8085938 C128.864578,39.3424506 127.731777,39.720051 126.585938,39.9414062 C125.440098,40.1627615 124.131518,40.2734375 122.660156,40.2734375 L122.660156,40.2734375 L122.660156,40.2734375 Z M121.820312,21.3671875 C120.361972,21.3671875 119.193364,21.8294225 118.314453,22.7539062 C117.435542,23.67839 116.911459,25.0260328 116.742188,26.796875 L126.546875,26.796875 C126.520833,25.0130119 126.09115,23.662114 125.257812,22.7441406 C124.424475,21.8261673 123.278653,21.3671875 121.820312,21.3671875 L121.820312,21.3671875 L121.820312,21.3671875 Z M147.230469,17.890625 C148.154953,17.890625 148.916664,17.9557285 149.515625,18.0859375 L149.066406,22.3632812 C148.415361,22.2070305 147.738285,22.1289062 147.035156,22.1289062 C145.19921,22.1289062 143.711594,22.7278586 142.572266,23.9257812 C141.432937,25.1237039 140.863281,26.6796779 140.863281,28.59375 L140.863281,39.8828125 L136.273438,39.8828125 L136.273438,18.28125 L139.867188,18.28125 L140.472656,22.0898438 L140.707031,22.0898438 C141.423181,20.8007748 142.357416,19.7786496 143.509766,19.0234375 C144.662115,18.2682254 145.902337,17.890625 147.230469,17.890625 L147.230469,17.890625 L147.230469,17.890625 Z M171.761719,18.28125 L171.761719,20.8007812 L168.070312,21.484375 C168.408856,21.9401064 168.688801,22.4999967 168.910156,23.1640625 C169.131512,23.8281283 169.242188,24.5312463 169.242188,25.2734375 C169.242188,27.5000111 168.473966,29.2512957 166.9375,30.5273438 C165.401034,31.8033918 163.28517,32.4414062 160.589844,32.4414062 C159.899736,32.4414062 159.274742,32.3893234 158.714844,32.2851562 C157.725255,32.8971385 157.230469,33.6132771 157.230469,34.4335938 C157.230469,34.9283879 157.461586,35.2994779 157.923828,35.546875 C158.38607,35.7942721 159.235671,35.9179688 160.472656,35.9179688 L164.242188,35.9179688 C166.625012,35.9179688 168.43489,36.4257762 169.671875,37.4414062 C170.90886,38.4570363 171.527344,39.9218654 171.527344,41.8359375 C171.527344,44.2838664 170.518239,46.1718684 168.5,47.5 C166.481761,48.8281316 163.565123,49.4921875 159.75,49.4921875 C156.807277,49.4921875 154.561206,48.9713594 153.011719,47.9296875 C151.462232,46.8880156 150.6875,45.4036555 150.6875,43.4765625 C150.6875,42.1484309 151.107418,41.0319056 151.947266,40.1269531 C152.787114,39.2220007 153.962232,38.5937518 155.472656,38.2421875 C154.860674,37.9817695 154.356122,37.5618519 153.958984,36.9824219 C153.561847,36.4029919 153.363281,35.794274 153.363281,35.15625 C153.363281,34.3489543 153.591144,33.6653674 154.046875,33.1054688 C154.502606,32.5455701 155.179683,31.9921902 156.078125,31.4453125 C154.958328,30.9635393 154.050134,30.1790419 153.353516,29.0917969 C152.656898,28.0045519 152.308594,26.7317781 152.308594,25.2734375 C152.308594,22.9296758 153.047519,21.1132877 154.525391,19.8242188 C156.003263,18.5351498 158.109361,17.890625 160.84375,17.890625 C161.455732,17.890625 162.097002,17.9329423 162.767578,18.0175781 C163.438154,18.102214 163.942707,18.1901037 164.28125,18.28125 L171.761719,18.28125 L171.761719,18.28125 Z M154.789062,43.2421875 C154.789062,44.2317758 155.235022,44.9934869 156.126953,45.5273438 C157.018885,46.0612006 158.272127,46.328125 159.886719,46.328125 C162.386731,46.328125 164.248692,45.9700557 165.472656,45.2539062 C166.696621,44.5377568 167.308594,43.5872455 167.308594,42.4023438 C167.308594,41.4648391 166.973311,40.797528 166.302734,40.4003906 C165.632158,40.0032532 164.385426,39.8046875 162.5625,39.8046875 L159.085938,39.8046875 C157.770827,39.8046875 156.725915,40.1139292 155.951172,40.7324219 C155.176428,41.3509146 154.789062,42.1874947 154.789062,43.2421875 L154.789062,43.2421875 L154.789062,43.2421875 Z M156.761719,25.2734375 C156.761719,26.6276109 157.110023,27.6692672 157.806641,28.3984375 C158.503259,29.1276078 159.502598,29.4921875 160.804688,29.4921875 C163.460951,29.4921875 164.789062,28.0729309 164.789062,25.234375 C164.789062,23.828118 164.46029,22.7441444 163.802734,21.9824219 C163.145179,21.2206993 162.14584,20.8398438 160.804688,20.8398438 C159.476556,20.8398438 158.470707,21.2174441 157.787109,21.9726562 C157.103512,22.7278684 156.761719,23.8281178 156.761719,25.2734375 L156.761719,25.2734375 L156.761719,25.2734375 Z M172.484375,18.28125 L177.484375,18.28125 L181.878906,30.5273438 C182.542972,32.2721441 182.985676,33.9127527 183.207031,35.4492188 L183.363281,35.4492188 C183.480469,34.7330693 183.695311,33.8639374 184.007812,32.8417969 C184.320314,31.8196563 185.973943,26.9661893 188.96875,18.28125 L193.929688,18.28125 L184.691406,42.7539062 C183.01171,47.2461162 180.212259,49.4921875 176.292969,49.4921875 C175.277339,49.4921875 174.287765,49.3815115 173.324219,49.1601562 L173.324219,45.5273438 C174.014326,45.6835945 174.802079,45.7617188 175.6875,45.7617188 C177.901053,45.7617188 179.457027,44.4791795 180.355469,41.9140625 L181.15625,39.8828125 L172.484375,18.28125 L172.484375,18.28125 Z M226.996094,19.9609375 C226.996094,22.9427232 226.019541,25.2278566 224.066406,26.8164062 C222.113271,28.4049559 219.333351,29.1992188 215.726562,29.1992188 L212.757812,29.1992188 L212.757812,39.8828125 L208.089844,39.8828125 L208.089844,11.328125 L216.3125,11.328125 C219.880226,11.328125 222.552725,12.0572844 224.330078,13.515625 C226.107431,14.9739656 226.996094,17.1223816 226.996094,19.9609375 L226.996094,19.9609375 L226.996094,19.9609375 Z M212.757812,25.2734375 L215.238281,25.2734375 C217.634127,25.2734375 219.391921,24.856775 220.511719,24.0234375 C221.631516,23.1901 222.191406,21.8880297 222.191406,20.1171875 C222.191406,18.4765543 221.690109,17.2526082 220.6875,16.4453125 C219.684891,15.6380168 218.122406,15.234375 216,15.234375 L212.757812,15.234375 L212.757812,25.2734375 L212.757812,25.2734375 Z M243.167969,17.890625 C244.092453,17.890625 244.854164,17.9557285 245.453125,18.0859375 L245.003906,22.3632812 C244.352861,22.2070305 243.675785,22.1289062 242.972656,22.1289062 C241.13671,22.1289062 239.649094,22.7278586 238.509766,23.9257812 C237.370437,25.1237039 236.800781,26.6796779 236.800781,28.59375 L236.800781,39.8828125 L232.210938,39.8828125 L232.210938,18.28125 L235.804688,18.28125 L236.410156,22.0898438 L236.644531,22.0898438 C237.360681,20.8007748 238.294916,19.7786496 239.447266,19.0234375 C240.599615,18.2682254 241.839837,17.890625 243.167969,17.890625 L243.167969,17.890625 L243.167969,17.890625 Z M258.890625,40.2734375 C255.531233,40.2734375 252.904306,39.2936296 251.009766,37.3339844 C249.115225,35.3743392 248.167969,32.6757984 248.167969,29.2382812 C248.167969,25.7096178 249.046866,22.936208 250.804688,20.9179688 C252.562509,18.8997295 254.977849,17.890625 258.050781,17.890625 C260.902358,17.890625 263.15494,18.7565018 264.808594,20.4882812 C266.462248,22.2200607 267.289062,24.6028494 267.289062,27.6367188 L267.289062,30.1171875 L252.894531,30.1171875 C252.959636,32.2135521 253.526036,33.8248642 254.59375,34.9511719 C255.661464,36.0774796 257.165355,36.640625 259.105469,36.640625 C260.381517,36.640625 261.569656,36.5201835 262.669922,36.2792969 C263.770188,36.0384103 264.951817,35.6380236 266.214844,35.078125 L266.214844,38.8085938 C265.095046,39.3424506 263.962245,39.720051 262.816406,39.9414062 C261.670567,40.1627615 260.361987,40.2734375 258.890625,40.2734375 L258.890625,40.2734375 L258.890625,40.2734375 Z M258.050781,21.3671875 C256.592441,21.3671875 255.423833,21.8294225 254.544922,22.7539062 C253.666011,23.67839 253.141928,25.0260328 252.972656,26.796875 L262.777344,26.796875 C262.751302,25.0130119 262.321619,23.662114 261.488281,22.7441406 C260.654944,21.8261673 259.509122,21.3671875 258.050781,21.3671875 L258.050781,21.3671875 L258.050781,21.3671875 Z M290.707031,39.8828125 L286.097656,39.8828125 L286.097656,26.5625 C286.097656,24.9088459 285.785159,23.6751343 285.160156,22.8613281 C284.535153,22.047522 283.5586,21.640625 282.230469,21.640625 C280.459627,21.640625 279.160811,22.2167911 278.333984,23.3691406 C277.507157,24.5214901 277.09375,26.4387887 277.09375,29.1210938 L277.09375,39.8828125 L272.503906,39.8828125 L272.503906,18.28125 L276.097656,18.28125 L276.742188,21.1132812 L276.976562,21.1132812 C277.575524,20.0846303 278.444656,19.2903674 279.583984,18.7304688 C280.723313,18.1705701 281.976556,17.890625 283.34375,17.890625 C286.664079,17.890625 288.864578,19.0234262 289.945312,21.2890625 L290.257812,21.2890625 C290.895837,20.2213488 291.794265,19.3880238 292.953125,18.7890625 C294.111985,18.1901012 295.440097,17.890625 296.9375,17.890625 C299.515638,17.890625 301.393874,18.5416602 302.572266,19.84375 C303.750657,21.1458398 304.339844,23.1314971 304.339844,25.8007812 L304.339844,39.8828125 L299.75,39.8828125 L299.75,26.5625 C299.75,24.9088459 299.434248,23.6751343 298.802734,22.8613281 C298.171221,22.047522 297.191413,21.640625 295.863281,21.640625 C294.079418,21.640625 292.774093,22.1972601 291.947266,23.3105469 C291.120439,24.4238337 290.707031,26.132801 290.707031,28.4375 L290.707031,39.8828125 L290.707031,39.8828125 Z M315.335938,39.8828125 L310.746094,39.8828125 L310.746094,18.28125 L315.335938,18.28125 L315.335938,39.8828125 L315.335938,39.8828125 Z M310.472656,12.5585938 C310.472656,11.7382771 310.697263,11.106773 311.146484,10.6640625 C311.595705,10.221352 312.236975,10 313.070312,10 C313.877608,10 314.505857,10.221352 314.955078,10.6640625 C315.404299,11.106773 315.628906,11.7382771 315.628906,12.5585938 C315.628906,13.3398477 315.404299,13.9550759 314.955078,14.4042969 C314.505857,14.8535179 313.877608,15.078125 313.070312,15.078125 C312.236975,15.078125 311.595705,14.8535179 311.146484,14.4042969 C310.697263,13.9550759 310.472656,13.3398477 310.472656,12.5585938 L310.472656,12.5585938 L310.472656,12.5585938 Z M331.332031,40.2734375 C327.972639,40.2734375 325.345713,39.2936296 323.451172,37.3339844 C321.556631,35.3743392 320.609375,32.6757984 320.609375,29.2382812 C320.609375,25.7096178 321.488272,22.936208 323.246094,20.9179688 C325.003915,18.8997295 327.419255,17.890625 330.492188,17.890625 C333.343764,17.890625 335.596346,18.7565018 337.25,20.4882812 C338.903654,22.2200607 339.730469,24.6028494 339.730469,27.6367188 L339.730469,30.1171875 L325.335938,30.1171875 C325.401042,32.2135521 325.967443,33.8248642 327.035156,34.9511719 C328.10287,36.0774796 329.606761,36.640625 331.546875,36.640625 C332.822923,36.640625 334.011062,36.5201835 335.111328,36.2792969 C336.211594,36.0384103 337.393223,35.6380236 338.65625,35.078125 L338.65625,38.8085938 C337.536453,39.3424506 336.403652,39.720051 335.257812,39.9414062 C334.111973,40.1627615 332.803393,40.2734375 331.332031,40.2734375 L331.332031,40.2734375 L331.332031,40.2734375 Z M330.492188,21.3671875 C329.033847,21.3671875 327.865239,21.8294225 326.986328,22.7539062 C326.107417,23.67839 325.583334,25.0260328 325.414062,26.796875 L335.21875,26.796875 C335.192708,25.0130119 334.763025,23.662114 333.929688,22.7441406 C333.09635,21.8261673 331.950528,21.3671875 330.492188,21.3671875 L330.492188,21.3671875 L330.492188,21.3671875 Z M355.902344,17.890625 C356.826828,17.890625 357.588539,17.9557285 358.1875,18.0859375 L357.738281,22.3632812 C357.087236,22.2070305 356.41016,22.1289062 355.707031,22.1289062 C353.871085,22.1289062 352.383469,22.7278586 351.244141,23.9257812 C350.104812,25.1237039 349.535156,26.6796779 349.535156,28.59375 L349.535156,39.8828125 L344.945312,39.8828125 L344.945312,18.28125 L348.539062,18.28125 L349.144531,22.0898438 L349.378906,22.0898438 C350.095056,20.8007748 351.029291,19.7786496 352.181641,19.0234375 C353.33399,18.2682254 354.574212,17.890625 355.902344,17.890625 L355.902344,17.890625 L355.902344,17.890625 Z" id="Energy-Premier" fill="#FFFFFF"></path>
                            </g>
                        </g>
                    </g>
                </g>
            </g>
        </g>
    </g>
</svg>