<?xml version="1.0" encoding="UTF-8"?>
<svg width="241px" height="213px" viewBox="0 0 241 213" version="1.1" xmlns="http://www.w3.org/2000/svg" xmlns:xlink="http://www.w3.org/1999/xlink">
    <!-- Generator: Sketch 40 (33762) - http://www.bohemiancoding.com/sketch -->
    <title>main2</title>
    <desc>Created with Sketch.</desc>
    <defs></defs>
    <g id="Page-1" stroke="none" stroke-width="1" fill="none" fill-rule="evenodd">
        <g id="main2">
            <g id="Page-1">
                <g id="main">
                    <g id="Page-1">
                        <g id="main">
                            <g id="Page-1">
                                <g id="main">
                                    <g id="Page-1">
                                        <g id="Icons-by-Sunako---Sketch-App-Source">
                                            <g id=":D">
                                                <ellipse id="shadow" fill="#EDF2EF" opacity="0.196897645" cx="120" cy="204" rx="120" ry="9"></ellipse>
                                                <g id="Group-2" transform="translate(14.000000, 0.000000)">
                                                    <path d="M177.5,177 L200,177 L206,177 L206,183 C206,193.49341 197.49341,202 187,202 L181,202 L88.5045533,202 L24.0010196,202 C10.7457002,202 0,191.258229 0,178.004736 L0,16.005072 C0,7.16639976 7.15386374,0 15.9908933,0 L158.009107,0 C166.841562,0 174,7.17051599 174,16.005072 L174,27 C174,28.6568542 172.656854,30 171,30 C169.343146,30 168,28.6568542 168,27 L168,16.005072 C168,10.4833017 163.526925,6 158.009107,6 L15.9908933,6 C10.4682646,6 6,10.4794233 6,16.005072 L6,178.004736 C6,187.944443 14.059331,196 24.0010196,196 L88.5045533,196 L173.143511,196 C169.953707,192.601386 168,188.028849 168,183 L168,177 L174,177 L177.5,177 L181,177 L184,177 L172.376282,178.387146 L168,177 L168,141 C168,139.343146 169.343146,138 171,138 C172.656854,138 174,139.343146 174,141 L174,183 L168,177 L177.5,177 L177.5,177 L177.5,177 L177.5,177 L177.5,177 L177.5,177 Z M42,107 C42,105.343146 43.3358366,104 45.0078125,104 L108.992188,104 C110.653356,104 112,105.346517 112,107 C112,108.656854 110.664163,110 108.992188,110 L45.0078125,110 C43.3466435,110 42,108.653483 42,107 L42,107 L42,107 L42,107 L42,107 L42,107 Z M42,137 C42,135.343146 43.3420956,134 44.9944611,134 L129.005539,134 C130.659334,134 132,135.346517 132,137 C132,138.656854 130.657904,140 129.005539,140 L44.9944611,140 C43.3406659,140 42,138.653483 42,137 L42,137 L42,137 L42,137 L42,137 L42,137 Z M42,77 C42,75.3431458 43.3358366,74 45.0078125,74 L108.992188,74 C110.653356,74 112,75.3465171 112,77 C112,78.6568542 110.664163,80 108.992188,80 L45.0078125,80 C43.3466435,80 42,78.6534829 42,77 L42,77 L42,77 L42,77 L42,77 L42,77 Z M200,183 L174,183 C174,190.179702 179.820298,196 187,196 C194.179702,196 200,190.179702 200,183 L200,183 L200,183 L200,183 L200,183 L200,183 Z" id="Shape" fill="#FFFFFF"></path>
                                                    <rect id="Rectangle-20" fill="#1BB933" x="137" y="42" width="90" height="80" rx="40"></rect>
                                                    <g id="flash" transform="translate(170.000000, 60.000000)" fill="#FFFFFF">
                                                        <g id="Layer_1">
                                                            <polygon id="Shape" points="24.9171514 15.3260285 14.2494612 15.3260285 24.13854 0 11.6798761 0 0 22.9890427 9.18826684 22.9890427 0 44.4454131"></polygon>
                                                        </g>
                                                    </g>
                                                </g>
                                            </g>
                                        </g>
                                    </g>
                                </g>
                            </g>
                        </g>
                    </g>
                </g>
            </g>
        </g>
    </g>
</svg>