<?xml version="1.0" encoding="UTF-8"?>
<svg width="235px" height="202px" viewBox="0 0 235 202" version="1.1" xmlns="http://www.w3.org/2000/svg" xmlns:xlink="http://www.w3.org/1999/xlink">
    <!-- Generator: Sketch 40 (33762) - http://www.bohemiancoding.com/sketch -->
    <title>Group</title>
    <desc>Created with Sketch.</desc>
    <defs></defs>
    <g id="Page-1" stroke="none" stroke-width="1" fill="none" fill-rule="evenodd">
        <g id="51090-O7DL0D" transform="translate(-273.000000, -393.000000)">
            <g id="Group" transform="translate(273.000000, 393.000000)">
                <path d="M80.355,201.637 C36.369,201.637 0.705,194.182 0.705,184.987 C0.705,175.793 36.369,168.336 80.355,168.336 C124.342,168.336 160.006,175.793 160.006,184.987 C160.006,194.182 124.342,201.637 80.355,201.637" id="Fill-32" fill="#8ECCBB"></path>
                <path d="M183.855,169.542 C155.704,169.542 132.88,164.771 132.88,158.887 C132.88,153.003 155.704,148.231 183.855,148.231 C212.008,148.231 234.832,153.003 234.832,158.887 C234.832,164.771 212.008,169.542 183.855,169.542" id="Fill-33" fill="#A6D6C7"></path>
                <polyline id="Fill-34" fill="#121513" points="151.45 159.135 148.887 158.419 181.718 40.804 184.281 41.52 151.45 159.135"></polyline>
                <polyline id="Fill-35" fill="#121513" points="216.278 159.135 218.842 158.419 186.011 40.804 183.445 41.52 216.278 159.135"></polyline>
                <polygon id="Fill-36" fill="#121513" points="166.673 74.625 201.056 74.625 201.056 72.321 166.673 72.321"></polygon>
                <polygon id="Fill-37" fill="#121513" points="157.655 110.914 210.073 110.914 210.073 108.609 157.655 108.609"></polygon>
                <path d="M173.922,75.389 C183.701,87.101 193.481,98.813 203.261,110.525 C204.154,111.596 205.674,110.06 204.788,108.998 C195.009,97.286 185.229,85.573 175.449,73.861 C174.556,72.791 173.036,74.327 173.922,75.389" id="Fill-38" fill="#121513"></path>
                <path d="M192.03,73.861 C182.19,85.573 172.35,97.286 162.51,108.998 C161.62,110.057 163.14,111.593 164.037,110.525 C173.877,98.813 183.718,87.101 193.558,75.389 C194.447,74.33 192.928,72.794 192.03,73.861" id="Fill-39" fill="#121513"></path>
                <path d="M178.253,53.041 C182.789,60.418 187.325,67.794 191.861,75.17 C192.59,76.354 194.458,75.27 193.727,74.08 C189.19,66.703 184.654,59.327 180.118,51.951 C179.39,50.767 177.521,51.852 178.253,53.041" id="Fill-40" fill="#121513"></path>
                <path d="M187.683,51.951 C183.039,59.327 178.396,66.703 173.753,74.08 C173.009,75.263 174.878,76.346 175.618,75.17 C180.262,67.794 184.904,60.418 189.548,53.041 C190.292,51.858 188.423,50.775 187.683,51.951" id="Fill-41" fill="#121513"></path>
                <path d="M162.729,110.694 C179.144,121.229 195.559,131.765 211.975,142.3 C213.15,143.055 214.232,141.185 213.064,140.435 C196.649,129.899 180.234,119.364 163.818,108.829 C162.643,108.074 161.561,109.944 162.729,110.694" id="Fill-42" fill="#121513"></path>
                <path d="M203.479,108.829 C187.231,119.364 170.983,129.899 154.735,140.435 C153.571,141.189 154.652,143.06 155.825,142.3 C172.073,131.765 188.321,121.229 204.569,110.694 C205.733,109.939 204.652,108.069 203.479,108.829" id="Fill-43" fill="#121513"></path>
                <path d="M219.864,51.416 L147.864,51.416 C148.046,52.087 148.228,52.758 148.409,53.429 C154.039,49.665 159.669,45.9 165.299,42.137 C165.937,41.71 164.754,41.998 165.994,41.998 L170.126,41.998 L183.373,41.998 L196.892,41.998 L200.995,41.998 C201.997,41.998 202.527,42.201 202.196,41.98 C207.904,45.797 213.611,49.612 219.319,53.429 C220.48,54.205 221.561,52.333 220.409,51.563 C214.653,47.715 208.897,43.867 203.142,40.019 C202.071,39.303 199.445,39.838 198.276,39.838 L184.355,39.838 L170.837,39.838 C169.434,39.838 165.912,39.133 164.637,39.985 C158.864,43.845 153.092,47.704 147.319,51.563 C146.451,52.145 146.744,53.576 147.864,53.576 L219.864,53.576 C221.257,53.576 221.257,51.416 219.864,51.416" id="Fill-44" fill="#121513"></path>
                <path d="M149.013,52.496 L149.013,63.018 C149.013,64.875 151.894,64.875 151.894,63.018 L151.894,52.496 C151.894,50.639 149.013,50.639 149.013,52.496" id="Fill-45" fill="#121513"></path>
                <path d="M146.518,57.901 L154.389,57.901 C155.317,57.901 155.317,56.462 154.389,56.462 L146.518,56.462 C145.589,56.462 145.589,57.901 146.518,57.901" id="Fill-46" fill="#121513"></path>
                <path d="M146.518,61.356 L154.389,61.356 C155.317,61.356 155.317,59.917 154.389,59.917 L146.518,59.917 C145.589,59.917 145.589,61.356 146.518,61.356" id="Fill-47" fill="#121513"></path>
                <path d="M215.829,52.496 L215.829,63.018 C215.829,64.875 218.71,64.875 218.71,63.018 L218.71,52.496 C218.71,50.639 215.829,50.639 215.829,52.496" id="Fill-48" fill="#121513"></path>
                <path d="M213.334,57.901 L221.205,57.901 C222.134,57.901 222.134,56.462 221.205,56.462 L213.334,56.462 C212.405,56.462 212.405,57.901 213.334,57.901" id="Fill-49" fill="#121513"></path>
                <path d="M213.334,61.356 L221.205,61.356 C222.134,61.356 222.134,59.917 221.205,59.917 L213.334,59.917 C212.405,59.917 212.405,61.356 213.334,61.356" id="Fill-50" fill="#121513"></path>
                <path d="M155.027,158.505 C155.027,159.141 154.512,159.656 153.876,159.656 L147.036,159.656 C146.4,159.656 145.885,159.141 145.885,158.505 L145.885,157.209 C145.885,156.573 146.4,156.057 147.036,156.057 L153.876,156.057 C154.512,156.057 155.027,156.573 155.027,157.209 L155.027,158.505" id="Fill-51" fill="#121513"></path>
                <path d="M221.844,158.505 C221.844,159.141 221.328,159.656 220.692,159.656 L213.853,159.656 C213.217,159.656 212.699,159.141 212.699,158.505 L212.699,157.209 C212.699,156.573 213.217,156.057 213.853,156.057 L220.692,156.057 C221.328,156.057 221.844,156.573 221.844,157.209 L221.844,158.505" id="Fill-52" fill="#121513"></path>
                <polyline id="Fill-53" fill="#121513" points="29.718 186.869 25.712 185.75 77.01 1.975 81.015 3.094 29.718 186.869"></polyline>
                <polyline id="Fill-54" fill="#121513" points="131.01 186.869 135.017 185.75 83.718 1.975 79.712 3.094 131.01 186.869"></polyline>
                <polygon id="Fill-55" fill="#121513" points="53.502 54.822 107.226 54.822 107.226 51.223 53.502 51.223"></polygon>
                <polygon id="Fill-56" fill="#121513" points="39.414 111.521 121.314 111.521 121.314 107.922 39.414 107.922"></polygon>
                <path d="M64.829,56.016 C80.109,74.315 95.39,92.616 110.67,110.916 C112.067,112.589 114.441,110.188 113.057,108.529 C97.776,90.229 82.496,71.929 67.215,53.629 C65.819,51.956 63.444,54.357 64.829,56.016" id="Fill-57" fill="#121513"></path>
                <path d="M93.124,53.629 C77.748,71.929 62.372,90.229 46.996,108.529 C45.605,110.184 47.98,112.584 49.382,110.916 C64.758,92.616 80.134,74.315 95.511,56.016 C96.901,54.361 94.526,51.961 93.124,53.629" id="Fill-58" fill="#121513"></path>
                <path d="M71.594,21.097 C78.683,32.623 85.771,44.148 92.86,55.674 C93.998,57.523 96.918,55.83 95.774,53.971 C88.686,42.445 81.597,30.919 74.508,19.394 C73.371,17.544 70.451,19.237 71.594,21.097" id="Fill-59" fill="#121513"></path>
                <path d="M86.332,19.394 C79.076,30.919 71.82,42.445 64.565,53.971 C63.402,55.818 66.323,57.511 67.479,55.674 C74.735,44.148 81.99,32.623 89.246,21.097 C90.409,19.249 87.488,17.557 86.332,19.394" id="Fill-60" fill="#121513"></path>
                <path d="M47.337,111.18 C72.987,127.641 98.637,144.102 124.287,160.563 C126.125,161.742 127.815,158.819 125.99,157.648 C100.34,141.188 74.69,124.727 49.041,108.266 C47.203,107.086 45.512,110.009 47.337,111.18" id="Fill-61" fill="#121513"></path>
                <path d="M111.012,108.266 C85.625,124.727 60.238,141.188 34.851,157.648 C33.032,158.827 34.722,161.751 36.554,160.563 C61.941,144.102 87.328,127.641 112.715,111.18 C114.534,110.001 112.844,107.077 111.012,108.266" id="Fill-62" fill="#121513"></path>
                <path d="M136.614,18.558 L24.114,18.558 C24.397,19.605 24.682,20.654 24.965,21.702 C33.888,15.737 42.811,9.771 51.734,3.807 C52.498,3.296 50.719,3.842 51.373,3.842 L52.881,3.842 L59.561,3.842 L80.365,3.842 L101.168,3.842 L107.465,3.842 L109.205,3.842 C110.156,3.842 108.231,3.295 108.996,3.807 C117.918,9.771 126.84,15.737 135.763,21.702 C137.578,22.916 139.266,19.991 137.466,18.788 C128.49,12.787 119.515,6.786 110.539,0.785 C108.646,-0.48 103.965,0.467 101.879,0.467 L80.365,0.467 L59.561,0.467 C57.431,0.467 52.225,-0.575 50.289,0.72 C41.28,6.742 32.271,12.766 23.262,18.788 C21.905,19.695 22.363,21.933 24.114,21.933 L136.614,21.933 C138.791,21.933 138.791,18.558 136.614,18.558" id="Fill-63" fill="#121513"></path>
                <path d="M25.91,20.245 L25.91,36.684 C25.91,39.586 30.41,39.586 30.41,36.684 L30.41,20.245 C30.41,17.343 25.91,17.343 25.91,20.245" id="Fill-64" fill="#121513"></path>
                <path d="M22.011,28.689 L34.31,28.689 C35.761,28.689 35.761,26.439 34.31,26.439 L22.011,26.439 C20.56,26.439 20.56,28.689 22.011,28.689" id="Fill-65" fill="#121513"></path>
                <path d="M22.011,34.09 L34.31,34.09 C35.761,34.09 35.761,31.84 34.31,31.84 L22.011,31.84 C20.56,31.84 20.56,34.09 22.011,34.09" id="Fill-66" fill="#121513"></path>
                <path d="M130.311,20.245 L130.311,36.684 C130.311,39.586 134.811,39.586 134.811,36.684 L134.811,20.245 C134.811,17.343 130.311,17.343 130.311,20.245" id="Fill-67" fill="#121513"></path>
                <path d="M126.411,28.689 L138.711,28.689 C140.162,28.689 140.162,26.439 138.711,26.439 L126.411,26.439 C124.959,26.439 124.959,28.689 126.411,28.689" id="Fill-68" fill="#121513"></path>
                <path d="M126.411,34.09 L138.711,34.09 C140.162,34.09 140.162,31.84 138.711,31.84 L126.411,31.84 C124.959,31.84 124.959,34.09 126.411,34.09" id="Fill-69" fill="#121513"></path>
                <path d="M35.308,185.885 C35.308,186.879 34.501,187.685 33.508,187.685 L22.82,187.685 C21.826,187.685 21.02,186.879 21.02,185.885 L21.02,183.859 C21.02,182.865 21.826,182.06 22.82,182.06 L33.508,182.06 C34.501,182.06 35.308,182.865 35.308,183.859 L35.308,185.885" id="Fill-70" fill="#121513"></path>
                <path d="M139.708,185.885 C139.708,186.879 138.902,187.685 137.908,187.685 L127.22,187.685 C126.226,187.685 125.42,186.879 125.42,185.885 L125.42,183.859 C125.42,182.865 126.226,182.06 127.22,182.06 L137.908,182.06 C138.902,182.06 139.708,182.865 139.708,183.859 L139.708,185.885" id="Fill-71" fill="#121513"></path>
            </g>
        </g>
    </g>
</svg>