<?xml version="1.0" encoding="UTF-8"?>
<svg width="240px" height="147px" viewBox="0 0 240 147" version="1.1" xmlns="http://www.w3.org/2000/svg" xmlns:xlink="http://www.w3.org/1999/xlink">
    <!-- Generator: Sketch 41 (35326) - http://www.bohemiancoding.com/sketch -->
    <title>windmill</title>
    <desc>Created with Sketch.</desc>
    <defs></defs>
    <g id="Page-1" stroke="none" stroke-width="1" fill="none" fill-rule="evenodd" opacity="0.354846014">
        <g id="windmill">
            <g id="Page-1">
                <g id="windmill">
                    <g id="Page-1">
                        <g id="infographic5">
                            <g id="Group-3">
                                <g id="Group-2">
                                    <polyline id="Fill-833" fill="#203654" points="66.127 51.02 59.439 51.02 61.174 1.333 64.36 1.333 66.127 51.02"></polyline>
                                    <polyline id="Fill-834" fill="#203654" points="58.125 51.777 60.875 45.683 105.43 67.799 104.121 70.722 58.125 51.777"></polyline>
                                    <polygon id="Fill-835" fill="#203654" points="67.674 52.497 20.525 68.36 19.406 65.374 65.338 46.24"></polygon>
                                    <polyline id="Fill-836" fill="#203654" points="95.099 146.089 87.867 146.089 89.93 87.231 93.037 87.231 95.099 146.089"></polyline>
                                    <polyline id="Fill-837" fill="#203654" points="93.299 88.771 89.263 88.771 90.323 58.786 92.238 58.786 93.299 88.771"></polyline>
                                    <polyline id="Fill-838" fill="#203654" points="88.474 89.215 90.151 85.533 117.014 98.879 116.202 100.634 88.474 89.215"></polyline>
                                    <polyline id="Fill-839" fill="#203654" points="92.832 85.881 94.226 89.635 65.816 99.22 65.117 97.427 92.832 85.881"></polyline>
                                    <polyline id="Fill-840" fill="#203654" points="135.344 146.089 127.841 146.089 129.99 84.912 133.208 84.912 135.344 146.089"></polyline>
                                    <polyline id="Fill-841" fill="#203654" points="133.48 86.484 129.287 86.484 130.376 55.333 132.373 55.333 133.48 86.484"></polyline>
                                    <polyline id="Fill-842" fill="#203654" points="128.464 86.959 130.188 83.139 158.122 97.004 157.302 98.837 128.464 86.959"></polyline>
                                    <polyline id="Fill-843" fill="#203654" points="132.986 83.488 134.451 87.411 104.891 97.356 104.189 95.484 132.986 83.488"></polyline>
                                    <polyline id="Fill-844" fill="#436999" points="151.645 146.089 147.111 146.089 148.404 109.188 150.352 109.188 151.645 146.089"></polyline>
                                    <polyline id="Fill-845" fill="#436999" points="150.517 110.153 147.986 110.153 148.651 91.354 149.852 91.354 150.517 110.153"></polyline>
                                    <polyline id="Fill-846" fill="#436999" points="147.491 110.432 148.543 108.123 165.385 116.49 164.876 117.591 147.491 110.432"></polyline>
                                    <polyline id="Fill-847" fill="#436999" points="150.225 108.341 151.098 110.694 133.286 116.704 132.848 115.58 150.225 108.341"></polyline>
                                    <polyline id="Fill-848" fill="#203654" points="21.164 146.089 16.086 146.089 17.541 104.685 19.719 104.685 21.164 146.089"></polyline>
                                    <polyline id="Fill-849" fill="#203654" points="19.902 105.75 17.065 105.75 17.802 84.667 19.153 84.667 19.902 105.75"></polyline>
                                    <polyline id="Fill-850" fill="#203654" points="16.508 106.071 17.675 103.485 36.58 112.869 36.024 114.109 16.508 106.071"></polyline>
                                    <polyline id="Fill-851" fill="#203654" points="19.568 103.722 20.56 106.377 0.554 113.107 0.079 111.841 19.568 103.722"></polyline>
                                    <polyline id="Fill-852" fill="#43699A" points="32.195 146.089 29.128 146.089 30.003 121.114 31.321 121.114 32.195 146.089"></polyline>
                                    <polyline id="Fill-853" fill="#5680B7" points="31.433 121.769 29.72 121.769 30.17 109.045 30.982 109.045 31.433 121.769"></polyline>
                                    <polyline id="Fill-854" fill="#436999" points="29.385 121.957 30.097 120.395 41.495 126.057 41.15 126.802 29.385 121.957"></polyline>
                                    <polyline id="Fill-855" fill="#436999" points="31.234 120.542 31.826 122.135 19.772 126.202 19.475 125.441 31.234 120.542"></polyline>
                                    <polyline id="Fill-856" fill="#203654" points="191.018 146.089 178.939 146.089 182.4 47.613 187.579 47.613 191.018 146.089"></polyline>
                                    <polyline id="Fill-857" fill="#203654" points="188.016 50.145 181.267 50.145 183.02 0 186.234 0 188.016 50.145"></polyline>
                                    <polyline id="Fill-858" fill="#203654" points="179.942 50.909 182.718 44.759 227.684 67.077 226.361 70.027 179.942 50.909"></polyline>
                                    <polyline id="Fill-859" fill="#203654" points="187.222 45.32 189.579 51.636 141.996 67.645 140.867 64.632 187.222 45.32"></polyline>
                                    <polyline id="Fill-860" fill="#203654" points="217.254 146.089 209.959 146.089 212.04 86.688 215.176 86.688 217.254 146.089"></polyline>
                                    <polyline id="Fill-861" fill="#203654" points="215.44 88.244 211.366 88.244 212.438 57.981 214.369 57.981 215.44 88.244"></polyline>
                                    <polyline id="Fill-862" fill="#203654" points="210.569 88.692 212.263 84.977 239.373 98.443 238.554 100.216 210.569 88.692"></polyline>
                                </g>
                                <g id="Group" transform="translate(57.000000, 48.000000)" fill="#203654">
                                    <polyline id="Fill-832" points="12.098 98.089 0.131 98.089 3.56 0.512 8.691 0.512 12.098 98.089"></polyline>
                                    <polyline id="Fill-863" points="157.969 37.327 159.377 41.115 130.705 50.789 129.999 48.979 157.969 37.327"></polyline>
                                </g>
                            </g>
                        </g>
                    </g>
                </g>
            </g>
        </g>
    </g>
</svg>